M48
;Layer_Color=6321
;FILE_FORMAT=2:5
INCH,LZ
;TYPE=PLATED
T1F00S00C0.02800
T2F00S00C0.03000
T3F00S00C0.03150
T4F00S00C0.03200
T5F00S00C0.03543
T6F00S00C0.04331
%
T01
X033405Y021725
X038308Y02193
X0374016Y0256654
X0389764Y0263779
X0397638Y0279528
X0405512Y0283465
X0418376Y0272005
X0429134Y0259842
X038189Y0295276
X03295Y02906
X0318898Y0255906
X0350431Y0251969
X02774Y02504
X02561Y02548
X0259449Y02609
X0267168Y02974
X02942Y03002
Y02781
X02427Y02894
X0224409Y0287409
X02183Y02912
X0208662Y0299213
X0204724Y0222961
X0220472Y0220072
T02
X0362205Y023122
Y024122
X0366142Y0273622
Y0283465
Y0293307
Y030315
X0358268Y0287402
X041626Y030315
X042626
X0240157Y0264843
Y0254843
Y024122
Y023122
T03
X0362205Y0207677
Y021752
X0366142Y026378
X0240157Y021752
Y0207677
T04
X0337835Y0274528
Y0284528
Y0294213
Y0304213
X0307835
Y0294213
Y0284528
Y0274528
T05
X0382638Y0256654
Y0266654
Y0276654
Y0286654
X0412638
Y0276654
Y0266654
Y0256654
T06
X0208661Y0245906
Y0255906
Y0265906
M30
