G04*
G04 #@! TF.GenerationSoftware,Altium Limited,CircuitMaker,2.3.0 (2.3.0.3)*
G04*
G04 Layer_Color=8150272*
%FSLAX25Y25*%
%MOIN*%
G70*
G04*
G04 #@! TF.SameCoordinates,0492DEC5-DE9E-4361-A043-D8868978FAA7*
G04*
G04*
G04 #@! TF.FilePolarity,Negative*
G04*
G01*
G75*
%ADD33C,0.06800*%
%ADD34O,0.10642X0.06800*%
%ADD35R,0.10642X0.06800*%
%ADD36R,0.06706X0.06706*%
%ADD37C,0.06706*%
%ADD38O,0.08674X0.06706*%
%ADD39C,0.06312*%
%ADD40C,0.08300*%
%ADD41R,0.08300X0.08300*%
%ADD42C,0.05800*%
%ADD60R,0.07099X0.05918*%
%ADD61R,0.05918X0.07099*%
%ADD62R,0.09855X0.12808*%
%ADD63R,0.09461X0.12808*%
D33*
X358268Y287402D02*
D03*
X240157Y254843D02*
D03*
Y264843D02*
D03*
X426260Y303150D02*
D03*
X416260D02*
D03*
X362205Y241220D02*
D03*
Y231220D02*
D03*
X240157D02*
D03*
Y241220D02*
D03*
D34*
X208661Y265906D02*
D03*
Y255906D02*
D03*
D35*
Y245906D02*
D03*
D36*
X382638Y286654D02*
D03*
D37*
Y276654D02*
D03*
Y266654D02*
D03*
Y256654D02*
D03*
X412638Y286654D02*
D03*
Y276654D02*
D03*
Y266654D02*
D03*
Y256654D02*
D03*
D38*
X366142Y303150D02*
D03*
Y263780D02*
D03*
Y273622D02*
D03*
Y293307D02*
D03*
Y283465D02*
D03*
D39*
X362205Y217520D02*
D03*
Y207677D02*
D03*
X240157D02*
D03*
Y217520D02*
D03*
D40*
X307835Y274528D02*
D03*
Y284528D02*
D03*
X337835D02*
D03*
Y304213D02*
D03*
Y294213D02*
D03*
X307835D02*
D03*
D41*
X337835Y274528D02*
D03*
X307835Y304213D02*
D03*
D42*
X389764Y263779D02*
D03*
X334050Y217250D02*
D03*
X418376Y272005D02*
D03*
X429134Y259842D02*
D03*
X397638Y279528D02*
D03*
X405512Y283465D02*
D03*
X374016Y256654D02*
D03*
X381890Y295276D02*
D03*
X318898Y255906D02*
D03*
X208662Y299213D02*
D03*
X218300Y291200D02*
D03*
X204724Y222961D02*
D03*
X294200Y278100D02*
D03*
Y300200D02*
D03*
X220472Y220072D02*
D03*
X350431Y251969D02*
D03*
X259449Y260900D02*
D03*
X383080Y219300D02*
D03*
X277400Y250400D02*
D03*
X267168Y297400D02*
D03*
X242700Y289400D02*
D03*
X256100Y254800D02*
D03*
X224409Y287409D02*
D03*
X329500Y290600D02*
D03*
D60*
X224409Y264173D02*
D03*
Y255512D02*
D03*
D61*
X259449Y271653D02*
D03*
X268110D02*
D03*
Y283465D02*
D03*
X259449D02*
D03*
X318504Y279528D02*
D03*
X327165D02*
D03*
X275197Y307087D02*
D03*
X283858D02*
D03*
X327165Y299213D02*
D03*
X318504D02*
D03*
X342913Y251969D02*
D03*
X334252D02*
D03*
D62*
X203740Y208661D02*
D03*
X380905Y232284D02*
D03*
X308071Y255906D02*
D03*
D63*
X221457Y208661D02*
D03*
X398622Y232284D02*
D03*
X290354Y255906D02*
D03*
M02*
