G04*
G04 #@! TF.GenerationSoftware,Altium Limited,CircuitMaker,2.3.0 (2.3.0.3)*
G04*
G04 Layer_Physical_Order=1*
G04 Layer_Color=25308*
%FSLAX25Y25*%
%MOIN*%
G70*
G04*
G04 #@! TF.SameCoordinates,0492DEC5-DE9E-4361-A043-D8868978FAA7*
G04*
G04*
G04 #@! TF.FilePolarity,Positive*
G04*
G01*
G75*
%ADD15R,0.04331X0.06693*%
%ADD16R,0.09842X0.06693*%
%ADD17R,0.45000X0.35000*%
%ADD18R,0.08189X0.15000*%
%ADD19R,0.07874X0.15748*%
%ADD20O,0.07874X0.15748*%
%ADD21R,0.15748X0.07874*%
%ADD22O,0.15748X0.07874*%
%ADD23R,0.05905X0.05905*%
%ADD43C,0.03937*%
%ADD44C,0.01968*%
%ADD45R,0.62992X0.47244*%
%ADD46C,0.06000*%
%ADD47O,0.09842X0.06000*%
%ADD48R,0.09842X0.06000*%
%ADD49R,0.05905X0.05905*%
%ADD50C,0.05905*%
%ADD51O,0.07874X0.05905*%
%ADD52C,0.05512*%
%ADD53C,0.07500*%
%ADD54R,0.07500X0.07500*%
%ADD55C,0.05000*%
G36*
X362139Y313386D02*
X359788Y312412D01*
X355556Y308180D01*
X355276Y307505D01*
X353812Y306925D01*
X351100Y308048D01*
X341530D01*
X340040Y309537D01*
X335629D01*
X332510Y306418D01*
Y302007D01*
X335629Y298888D01*
X335677Y298772D01*
X333085Y296180D01*
Y294836D01*
X331630Y294233D01*
X331188Y294675D01*
X327812D01*
X325425Y292288D01*
Y288912D01*
X325665Y288673D01*
Y281589D01*
X315147Y271071D01*
X313615Y271223D01*
X313159Y272322D01*
Y276733D01*
X310365Y279528D01*
X313159Y282322D01*
Y286733D01*
X310523Y289370D01*
X313159Y292007D01*
Y296418D01*
X312145Y297433D01*
X312747Y298888D01*
X313159D01*
Y309537D01*
X302510D01*
Y298888D01*
X301283Y298048D01*
X297991D01*
X297700Y298750D01*
Y299700D01*
X290700D01*
Y299143D01*
X289309Y298308D01*
X285692Y301924D01*
X284055Y302602D01*
Y303740D01*
X283993D01*
X283480Y305102D01*
X283480Y305315D01*
Y308555D01*
X275575D01*
Y305315D01*
X275575Y305102D01*
X275062Y303740D01*
X275000D01*
Y294685D01*
X275000Y294685D01*
X274771Y293205D01*
X270963D01*
X270311Y294780D01*
X271243Y295712D01*
Y299088D01*
X268856Y301475D01*
X265481D01*
X265241Y301235D01*
X261872D01*
Y307087D01*
X260124Y311305D01*
X255906Y313053D01*
X251687Y311305D01*
X249940Y307087D01*
Y300492D01*
X248719Y299293D01*
X246124D01*
Y307087D01*
X244376Y311305D01*
X240158Y313053D01*
X235939Y311305D01*
X234192Y307087D01*
Y299213D01*
X235939Y294994D01*
X236633Y294706D01*
X237446Y292746D01*
X238372Y292362D01*
X238625Y291088D01*
Y287712D01*
X240314Y286024D01*
X239661Y284449D01*
X234449D01*
Y274606D01*
X254528D01*
Y279298D01*
X254623Y279528D01*
Y285800D01*
X254354Y286448D01*
X255229Y287757D01*
X260068D01*
X261167Y286658D01*
X263879Y285535D01*
X268211D01*
X268814Y284080D01*
X256444Y271710D01*
X245909Y269194D01*
X245058Y268578D01*
X244088Y268176D01*
X242662Y268808D01*
X242052Y269417D01*
X238262D01*
X235583Y266738D01*
X234242Y266182D01*
X232182Y268242D01*
Y279528D01*
X232086Y279757D01*
Y284449D01*
X228456D01*
X227853Y285904D01*
X227909Y285960D01*
Y286909D01*
X224409D01*
Y287409D01*
X223909D01*
Y290909D01*
X223849D01*
X222375Y292242D01*
Y292888D01*
X222950Y294276D01*
X223909D01*
Y303150D01*
Y312024D01*
X219472D01*
Y309734D01*
X217898Y309082D01*
X215212Y311767D01*
X212500Y312890D01*
X210622D01*
X210563Y312920D01*
X210260Y313386D01*
X211113Y314961D01*
X361826D01*
X362139Y313386D01*
D02*
G37*
G36*
X393803Y300173D02*
X393515Y298861D01*
X392049Y298164D01*
X389764Y299111D01*
X383817D01*
X383578Y299350D01*
X380202D01*
X377815Y296963D01*
Y293588D01*
X378647Y292756D01*
X378110Y291181D01*
X378110D01*
Y282126D01*
X379480D01*
X380133Y280551D01*
X378110Y278529D01*
Y274778D01*
X380317Y272571D01*
X380611Y271654D01*
X380317Y270736D01*
X378110Y268529D01*
Y264778D01*
X380317Y262572D01*
X380611Y261654D01*
X380317Y260736D01*
X379085Y259504D01*
X378110Y258529D01*
X376936Y259496D01*
X375704Y260728D01*
X372467D01*
X371226Y261847D01*
X372027Y263780D01*
X370591Y267245D01*
X369134Y267848D01*
Y269553D01*
X370591Y270157D01*
X372027Y273622D01*
X370591Y277087D01*
X369134Y277691D01*
Y279396D01*
X370591Y279999D01*
X372027Y283465D01*
X370591Y286930D01*
X369134Y287533D01*
Y289238D01*
X370591Y289842D01*
X372027Y293307D01*
X370591Y296772D01*
X368383Y297687D01*
Y299392D01*
X370151Y300124D01*
X371197Y302650D01*
X366142D01*
Y303650D01*
X371197D01*
X370822Y304555D01*
X371697Y305865D01*
X388111D01*
X393803Y300173D01*
D02*
G37*
G36*
X433071Y263082D02*
X431496Y262430D01*
X430584Y263342D01*
X429634D01*
Y259842D01*
Y256343D01*
X430584D01*
X431496Y257255D01*
X433071Y256603D01*
Y196850D01*
X323912D01*
X322843Y198090D01*
X322992Y199544D01*
X324287Y200410D01*
X326272Y199588D01*
Y208661D01*
Y217735D01*
X324287Y216913D01*
X322713Y217965D01*
Y235035D01*
X299713D01*
Y216535D01*
X299213D01*
Y216035D01*
X275713D01*
Y198425D01*
X275713Y198035D01*
X274772Y196850D01*
X196850D01*
Y313386D01*
X196850Y314961D01*
X196850Y314961D01*
X199721D01*
X200197Y313583D01*
X200197Y313386D01*
Y304528D01*
X200197D01*
Y303740D01*
X200197D01*
Y294685D01*
X200197D01*
Y293898D01*
X200197D01*
Y284842D01*
X203828D01*
X218965Y269706D01*
Y258892D01*
X217390Y258240D01*
X217012Y258617D01*
X214300Y259741D01*
X213278D01*
X211773Y260364D01*
Y262069D01*
X213644Y262844D01*
X214705Y265406D01*
X202618D01*
X203679Y262844D01*
X205550Y262069D01*
Y260364D01*
X203239Y259407D01*
X201788Y255906D01*
X203239Y252404D01*
X204081Y252055D01*
X203768Y250480D01*
X202165D01*
Y241331D01*
X215158D01*
Y241331D01*
X216637Y241101D01*
Y222000D01*
X216398Y221760D01*
Y218385D01*
X216254Y216817D01*
X214507Y212598D01*
Y204724D01*
X216254Y200506D01*
X220472Y198758D01*
X224691Y200506D01*
X226438Y204724D01*
Y212598D01*
X224691Y216817D01*
X224547Y218385D01*
Y221760D01*
X224308Y222000D01*
Y248201D01*
X225882Y248853D01*
X229248Y245488D01*
X231960Y244365D01*
X235065D01*
X235583Y243115D01*
Y242070D01*
X230888Y237375D01*
X229765Y234663D01*
Y214235D01*
X230888Y211523D01*
X235827Y206584D01*
Y205883D01*
X238364Y203346D01*
X241951D01*
X244488Y205883D01*
Y209471D01*
X241951Y212008D01*
X241589Y213040D01*
X241536Y213583D01*
X241718Y213768D01*
X243913Y215964D01*
Y217020D01*
X240157D01*
Y217520D01*
X239657D01*
Y221275D01*
X238602D01*
X237435Y221759D01*
Y226779D01*
X238501Y227220D01*
X239657D01*
Y231220D01*
X240157D01*
Y231720D01*
X244157D01*
Y232877D01*
X241964Y235071D01*
X242040Y236423D01*
X242088Y236682D01*
X244732Y239325D01*
Y243115D01*
X245250Y244365D01*
X246800D01*
X249512Y245488D01*
X250635Y248200D01*
Y262437D01*
X254077Y263259D01*
X255374Y261950D01*
Y259212D01*
X254996Y258300D01*
X254650D01*
X252600Y256250D01*
Y255300D01*
X259600D01*
Y256250D01*
X259838Y256825D01*
X261137D01*
X261376Y257065D01*
X262195D01*
X264907Y258188D01*
X287412Y280692D01*
X290227D01*
X290700Y279550D01*
Y278600D01*
X297700D01*
Y279550D01*
X298173Y280692D01*
X304139D01*
X305304Y279528D01*
X302510Y276733D01*
Y274627D01*
X294407Y266524D01*
X289213D01*
X288338Y266161D01*
X283543D01*
Y256841D01*
X280937Y254235D01*
X279327D01*
X279088Y254475D01*
X275712D01*
X273325Y252088D01*
Y248712D01*
X275712Y246325D01*
X279088D01*
X279327Y246565D01*
X282526D01*
X285238Y247688D01*
X285562Y248012D01*
X294882D01*
Y258853D01*
X295995D01*
X298707Y259977D01*
X302088Y263357D01*
X303543Y262755D01*
Y248012D01*
X314882D01*
Y252070D01*
X316970D01*
X317210Y251831D01*
X320585D01*
X322972Y254218D01*
Y257593D01*
X320585Y259980D01*
X317210D01*
X316970Y259741D01*
X314882D01*
Y263365D01*
X316700D01*
X319412Y264488D01*
X330935Y276011D01*
X332510Y275359D01*
Y269203D01*
X343159D01*
Y279852D01*
X341934D01*
X341332Y281307D01*
X342585Y282560D01*
Y284028D01*
X337835D01*
Y285028D01*
X342585D01*
Y286495D01*
X340785Y288295D01*
X339880Y289370D01*
X340785Y290445D01*
X342585Y292245D01*
Y293713D01*
X337835D01*
Y294713D01*
X342585D01*
Y296180D01*
X339992Y298772D01*
X340040Y298888D01*
X341530Y300377D01*
X346558D01*
Y284429D01*
X346877Y283661D01*
Y265942D01*
X348000Y263230D01*
X354896Y256333D01*
X354345Y254657D01*
X353616Y254547D01*
X352119Y256043D01*
X348744D01*
X346357Y253656D01*
Y250281D01*
X348744Y247894D01*
X349082D01*
X349588Y247388D01*
X352300Y246265D01*
X359365D01*
X360017Y244690D01*
X358205Y242877D01*
Y241720D01*
X366205D01*
Y242877D01*
X364392Y244690D01*
X365044Y246265D01*
X389200D01*
X391912Y247388D01*
X393035Y250100D01*
Y260091D01*
X392685Y260938D01*
X393839Y262092D01*
Y265467D01*
X391452Y267854D01*
X388076D01*
X387165Y268232D01*
Y268529D01*
X384959Y270736D01*
X384665Y271654D01*
X384959Y272571D01*
X386678Y274290D01*
X388645Y274550D01*
X392423Y270772D01*
X392686Y270663D01*
X395481Y267869D01*
Y225902D01*
X396604Y223190D01*
X400804Y218990D01*
X400201Y217535D01*
X398138D01*
Y209161D01*
X402575D01*
Y215162D01*
X404030Y215765D01*
X409334Y210460D01*
Y204724D01*
X410458Y202012D01*
X411811Y201452D01*
Y199213D01*
X430709D01*
Y210236D01*
X417005D01*
Y212049D01*
X416562Y213117D01*
X416844Y213631D01*
X417691Y214507D01*
X425197D01*
X429415Y216254D01*
X431163Y220472D01*
X429415Y224691D01*
X425197Y226438D01*
X417323D01*
X414674Y225341D01*
X409935Y230080D01*
Y251783D01*
X410762Y252126D01*
X414513D01*
X417165Y254778D01*
Y258529D01*
X414959Y260736D01*
X414665Y261654D01*
X414959Y262572D01*
X417165Y264778D01*
Y268505D01*
X417876D01*
Y272005D01*
Y275505D01*
X417165D01*
Y278529D01*
X414513Y281181D01*
X414408D01*
X414330Y282756D01*
X416590Y285016D01*
Y286154D01*
X412638D01*
Y286654D01*
X412138D01*
Y290606D01*
X411000D01*
X408685Y288291D01*
Y288111D01*
X407230Y287509D01*
X407200Y287539D01*
X403824D01*
X402928Y286643D01*
X401473Y287246D01*
Y297624D01*
X401624Y297776D01*
X402748Y300487D01*
X401624Y303199D01*
X392412Y312412D01*
X390061Y313386D01*
X390374Y314961D01*
X433071D01*
Y263082D01*
D02*
G37*
%LPC*%
G36*
X283480Y313008D02*
X280028D01*
Y309555D01*
X283480D01*
Y313008D01*
D02*
G37*
G36*
X279028D02*
X275575D01*
Y309555D01*
X279028D01*
Y313008D01*
D02*
G37*
G36*
X229346Y312024D02*
X224909D01*
Y303650D01*
X229346D01*
Y312024D01*
D02*
G37*
G36*
X295650Y303700D02*
X294700D01*
Y300700D01*
X297700D01*
Y301650D01*
X295650Y303700D01*
D02*
G37*
G36*
X293700D02*
X292750D01*
X290700Y301650D01*
Y300700D01*
X293700D01*
Y303700D01*
D02*
G37*
G36*
X229346Y302650D02*
X224909D01*
Y294276D01*
X229346D01*
Y302650D01*
D02*
G37*
G36*
X224909Y290909D02*
Y287909D01*
X227909D01*
Y288859D01*
X225859Y290909D01*
X224909D01*
D02*
G37*
G36*
X427917Y307150D02*
X426760D01*
Y303650D01*
X430260D01*
Y304806D01*
X427917Y307150D01*
D02*
G37*
G36*
X430260Y302650D02*
X426760D01*
Y299150D01*
X427917D01*
X430260Y301493D01*
Y302650D01*
D02*
G37*
G36*
X418155Y307724D02*
X414365D01*
X411685Y305045D01*
Y301255D01*
X414365Y298575D01*
X418155D01*
X420798Y301219D01*
X421057Y301267D01*
X422409Y301343D01*
X424603Y299150D01*
X425760D01*
Y303150D01*
Y307150D01*
X424603D01*
X422409Y304956D01*
X421057Y305032D01*
X420798Y305081D01*
X418155Y307724D01*
D02*
G37*
G36*
X414275Y290606D02*
X413138D01*
Y287154D01*
X416590D01*
Y288291D01*
X414275Y290606D01*
D02*
G37*
G36*
X297700Y277600D02*
X294700D01*
Y274600D01*
X295650D01*
X297700Y276650D01*
Y277600D01*
D02*
G37*
G36*
X293700D02*
X290700D01*
Y276650D01*
X292750Y274600D01*
X293700D01*
Y277600D01*
D02*
G37*
G36*
X419826Y275505D02*
X418876D01*
Y272505D01*
X421876D01*
Y273455D01*
X419826Y275505D01*
D02*
G37*
G36*
X421876Y271505D02*
X418876D01*
Y268505D01*
X419826D01*
X421876Y270556D01*
Y271505D01*
D02*
G37*
G36*
X210583Y270235D02*
X209161D01*
Y266406D01*
X214705D01*
X213644Y268967D01*
X210583Y270235D01*
D02*
G37*
G36*
X208161D02*
X206740D01*
X203679Y268967D01*
X202618Y266406D01*
X208161D01*
Y270235D01*
D02*
G37*
G36*
X428634Y263342D02*
X427684D01*
X425634Y261292D01*
Y260343D01*
X428634D01*
Y263342D01*
D02*
G37*
G36*
Y259343D02*
X425634D01*
Y258393D01*
X427684Y256343D01*
X428634D01*
Y259343D01*
D02*
G37*
G36*
X259600Y254300D02*
X256600D01*
Y251300D01*
X257550D01*
X259600Y253350D01*
Y254300D01*
D02*
G37*
G36*
X255600D02*
X252600D01*
Y253350D01*
X254650Y251300D01*
X255600D01*
Y254300D01*
D02*
G37*
G36*
X425197Y241564D02*
X421760D01*
Y236720D01*
X430334D01*
X428975Y239999D01*
X425197Y241564D01*
D02*
G37*
G36*
X420760D02*
X417323D01*
X413544Y239999D01*
X412186Y236720D01*
X420760D01*
Y241564D01*
D02*
G37*
G36*
X430334Y235720D02*
X421760D01*
Y230877D01*
X425197D01*
X428975Y232442D01*
X430334Y235720D01*
D02*
G37*
G36*
X420760D02*
X412186D01*
X413544Y232442D01*
X417323Y230877D01*
X420760D01*
Y235720D01*
D02*
G37*
G36*
X244157Y230720D02*
X240657D01*
Y227220D01*
X241814D01*
X244157Y229563D01*
Y230720D01*
D02*
G37*
G36*
X240657Y221275D02*
Y218020D01*
X243913D01*
Y219075D01*
X241713Y221275D01*
X240657D01*
D02*
G37*
G36*
X335738Y221325D02*
X332362D01*
X329975Y218938D01*
Y218033D01*
X328666Y217158D01*
X327272Y217735D01*
Y209161D01*
X332115D01*
Y211703D01*
X332276Y212662D01*
X333570Y213175D01*
X335738D01*
X337008Y212218D01*
Y199213D01*
X348031D01*
Y218110D01*
X346061D01*
X345232Y220112D01*
X342520Y221235D01*
X335827D01*
X335738Y221325D01*
D02*
G37*
G36*
X298713Y235035D02*
X275713D01*
Y217035D01*
X298713D01*
Y235035D01*
D02*
G37*
G36*
X366205Y240720D02*
X362205D01*
X358205D01*
Y239563D01*
X360398Y237370D01*
X360322Y236018D01*
X360274Y235759D01*
X357630Y233115D01*
Y229326D01*
X358370Y228586D01*
Y219809D01*
X357874Y219313D01*
Y215726D01*
X360411Y213189D01*
X363999D01*
X366535Y215726D01*
Y219313D01*
X366040Y219809D01*
Y228586D01*
X366780Y229326D01*
Y233115D01*
X364136Y235759D01*
X364087Y236018D01*
X364011Y237370D01*
X366205Y239563D01*
Y240720D01*
D02*
G37*
G36*
X397138Y217535D02*
X392701D01*
Y209161D01*
X397138D01*
Y217535D01*
D02*
G37*
G36*
X363761Y211433D02*
X362705D01*
Y208177D01*
X365961D01*
Y209233D01*
X363761Y211433D01*
D02*
G37*
G36*
X361705D02*
X360649D01*
X358449Y209233D01*
Y208177D01*
X361705D01*
Y211433D01*
D02*
G37*
G36*
X365961Y207177D02*
X362705D01*
Y203921D01*
X363761D01*
X365961Y206121D01*
Y207177D01*
D02*
G37*
G36*
X361705D02*
X358449D01*
Y206121D01*
X360649Y203921D01*
X361705D01*
Y207177D01*
D02*
G37*
G36*
X402575Y208161D02*
X398138D01*
Y199787D01*
X402575D01*
Y208161D01*
D02*
G37*
G36*
X397138D02*
X392701D01*
Y199787D01*
X397138D01*
Y208161D01*
D02*
G37*
G36*
X332115D02*
X327272D01*
Y199588D01*
X330550Y200946D01*
X332115Y204724D01*
Y208161D01*
D02*
G37*
G36*
X206412Y227036D02*
X203037D01*
X200650Y224649D01*
Y221274D01*
X200889Y221034D01*
Y218110D01*
X199213D01*
Y199213D01*
X210236D01*
Y218110D01*
X208560D01*
Y221034D01*
X208799Y221274D01*
Y224649D01*
X206412Y227036D01*
D02*
G37*
G36*
X384767Y223375D02*
X381392D01*
X379005Y220988D01*
Y220404D01*
X378055Y218110D01*
Y216976D01*
X377671Y216817D01*
X375924Y212598D01*
Y204724D01*
X377671Y200506D01*
X381890Y198758D01*
X386108Y200506D01*
X387856Y204724D01*
Y212598D01*
X386182Y216640D01*
X387154Y217612D01*
Y220988D01*
X384767Y223375D01*
D02*
G37*
%LPD*%
D15*
X228346Y279528D02*
D03*
X250787D02*
D03*
D16*
X240945D02*
D03*
D17*
X299213Y216535D02*
D03*
D18*
X289213Y257087D02*
D03*
X309213D02*
D03*
D19*
X342520Y208661D02*
D03*
X397638D02*
D03*
X204724D02*
D03*
X224409Y303150D02*
D03*
D20*
X326772Y208661D02*
D03*
X381890D02*
D03*
X220472D02*
D03*
X240158Y303150D02*
D03*
X255906D02*
D03*
D21*
X421260Y204724D02*
D03*
D22*
Y220472D02*
D03*
Y236220D02*
D03*
D23*
X204724Y309055D02*
D03*
Y289370D02*
D03*
Y299213D02*
D03*
X279528Y289370D02*
D03*
Y309055D02*
D03*
Y299213D02*
D03*
D43*
X240945Y279528D02*
X250787D01*
Y285800D01*
X246300D02*
X250787D01*
X240157Y217520D02*
X269100D01*
X387638Y261654D02*
X389200Y260091D01*
X413169Y204724D02*
Y212049D01*
X289213Y262688D02*
X295995D01*
X334200Y217400D02*
X342520D01*
X389764Y278855D02*
Y295276D01*
Y278855D02*
X395135Y273484D01*
X395289D02*
X399316Y269457D01*
X395135Y273484D02*
X395289D01*
X399316Y225902D02*
Y269457D01*
Y225902D02*
X413169Y212049D01*
X282526Y250400D02*
X289213Y257087D01*
X277400Y250400D02*
X282526D01*
X421200Y277900D02*
X421260Y277960D01*
X419134Y275834D02*
X421200Y277900D01*
X417323Y272152D02*
X419134Y273963D01*
X412638Y284100D02*
X415000D01*
X417323Y271155D02*
X419134Y269344D01*
X417323Y271155D02*
Y272152D01*
Y236220D02*
Y252152D01*
X421260Y277960D02*
Y283465D01*
X429134Y259842D02*
Y275591D01*
X421260Y283465D02*
X429134Y275591D01*
X397638Y279528D02*
Y299213D01*
X419134Y263963D02*
Y269344D01*
X417323Y262152D02*
X419134Y263963D01*
X417323Y261155D02*
Y262152D01*
Y261155D02*
X419134Y259344D01*
Y253963D02*
Y259344D01*
X417323Y252152D02*
X419134Y253963D01*
Y273963D02*
Y275834D01*
X417323Y236220D02*
X421260D01*
X405512Y279528D02*
Y283465D01*
Y279528D02*
X406100Y278939D01*
Y228491D02*
Y278939D01*
X389700Y309700D02*
X398913Y300487D01*
X397638Y299213D02*
X398913Y300487D01*
X381890Y295276D02*
X389764D01*
X360000Y256654D02*
X374016D01*
X350394Y303506D02*
X351100Y304213D01*
X350394Y284429D02*
Y303506D01*
Y284429D02*
X350712Y284111D01*
Y265942D02*
Y284111D01*
Y265942D02*
X360000Y256654D01*
X358268Y287402D02*
Y305468D01*
X362500Y309700D01*
X309418Y255906D02*
X318898D01*
X309213Y255700D02*
X309418Y255906D01*
X216543Y292957D02*
Y305012D01*
X208100Y299900D02*
X208787Y299213D01*
X208662D02*
X208787D01*
X212500Y309055D02*
X216543Y305012D01*
X204724Y309055D02*
X212500D01*
X255906Y297400D02*
X267168D01*
X326772Y220000D02*
Y241914D01*
Y208661D02*
Y220000D01*
X355600Y214282D02*
X362205Y207677D01*
X339642Y230240D02*
X355600Y214282D01*
X243700Y234763D02*
X256100Y247163D01*
X220472Y220072D02*
Y249733D01*
X240158Y295458D02*
X248719D01*
X208100Y299213D02*
Y299900D01*
X413169Y204724D02*
X421260D01*
X334050Y217250D02*
X334200Y217400D01*
X342520Y208661D02*
Y217400D01*
X295995Y262688D02*
X307835Y274528D01*
X216543Y292957D02*
X218300Y291200D01*
X204724Y208661D02*
Y222961D01*
X397638Y208661D02*
Y217500D01*
X389759Y225379D02*
X397638Y217500D01*
X379906Y225379D02*
X389759D01*
X362205Y207677D02*
X379906Y225379D01*
X240157Y231220D02*
X243700Y234763D01*
X249880D01*
X293217Y278100D01*
X294200D01*
X285345Y309055D02*
X294200Y300200D01*
X279528Y309055D02*
X285345D01*
X362500Y309700D02*
X389700D01*
X214300Y255906D02*
X220472Y249733D01*
X208661Y255906D02*
X214300D01*
X220472Y208661D02*
Y220072D01*
X350431Y251969D02*
X352300Y250100D01*
X389200D01*
Y260091D01*
X285823Y284528D02*
X307835D01*
X262195Y260900D02*
X285823Y284528D01*
X259449Y260900D02*
X262195D01*
X381890Y218110D02*
X383080Y219300D01*
X381890Y208661D02*
Y218110D01*
X204724Y289370D02*
X222800Y271294D01*
Y257360D02*
Y271294D01*
Y257360D02*
X231960Y248200D01*
X246800D01*
Y265464D01*
X258390Y268232D01*
X279528Y289370D01*
X414119Y220472D02*
X421260D01*
X406100Y228491D02*
X414119Y220472D01*
X279528Y299213D02*
X282980D01*
X288111Y294082D01*
X296100D01*
X296231Y294213D01*
X307835D01*
X263879Y289370D02*
X279528D01*
X261657Y291592D02*
X263879Y289370D01*
X252584Y291592D02*
X261657D01*
X248719Y295458D02*
X252584Y291592D01*
X240158Y295458D02*
Y303150D01*
X255906Y297400D02*
Y303150D01*
X242700Y289400D02*
X246300Y285800D01*
X204724Y299213D02*
X208100D01*
X256100Y247163D02*
Y254800D01*
X228346Y266654D02*
X240157Y254843D01*
X228346Y266654D02*
Y279528D01*
X224409Y287409D02*
Y303150D01*
X309213Y255700D02*
Y257087D01*
X337835Y284528D02*
X342500D01*
X345200Y281828D01*
Y260343D02*
Y281828D01*
X326772Y241914D02*
X345200Y260343D01*
X337835Y304213D02*
X351100D01*
X329500Y280000D02*
Y290600D01*
X316700Y267200D02*
X329500Y280000D01*
X309213Y267200D02*
X316700D01*
X309213Y257087D02*
Y267200D01*
X326772Y220000D02*
X337011Y230240D01*
X339642D01*
X412638Y284100D02*
Y286654D01*
X415000Y284100D02*
X421200Y277900D01*
X233600Y214235D02*
X240157Y207677D01*
X233600Y214235D02*
Y234663D01*
X240157Y241220D01*
X355600Y214282D02*
Y234616D01*
X362205Y241220D01*
Y217520D02*
Y231220D01*
X337835Y284528D02*
Y294213D01*
X316874Y208661D02*
X326772D01*
X309000Y216535D02*
X316874Y208661D01*
X299213Y216535D02*
X309000D01*
X270084D02*
X299213D01*
X269100Y217520D02*
X270084Y216535D01*
X240157Y217520D02*
Y231220D01*
D44*
X240945Y279528D02*
X250787D01*
D45*
X295276Y220472D02*
D03*
D46*
X358268Y287402D02*
D03*
X240157Y254843D02*
D03*
Y264843D02*
D03*
X426260Y303150D02*
D03*
X416260D02*
D03*
X362205Y241220D02*
D03*
Y231220D02*
D03*
X240157D02*
D03*
Y241220D02*
D03*
D47*
X208661Y265906D02*
D03*
Y255906D02*
D03*
D48*
Y245906D02*
D03*
D49*
X382638Y286654D02*
D03*
D50*
Y276654D02*
D03*
Y266654D02*
D03*
Y256654D02*
D03*
X412638Y286654D02*
D03*
Y276654D02*
D03*
Y266654D02*
D03*
Y256654D02*
D03*
D51*
X366142Y303150D02*
D03*
Y263780D02*
D03*
Y273622D02*
D03*
Y293307D02*
D03*
Y283465D02*
D03*
D52*
X362205Y217520D02*
D03*
Y207677D02*
D03*
X240157D02*
D03*
Y217520D02*
D03*
D53*
X307835Y274528D02*
D03*
Y284528D02*
D03*
X337835D02*
D03*
Y304213D02*
D03*
Y294213D02*
D03*
X307835D02*
D03*
D54*
X337835Y274528D02*
D03*
X307835Y304213D02*
D03*
D55*
X389764Y263779D02*
D03*
X334050Y217250D02*
D03*
X418376Y272005D02*
D03*
X429134Y259842D02*
D03*
X397638Y279528D02*
D03*
X405512Y283465D02*
D03*
X374016Y256654D02*
D03*
X381890Y295276D02*
D03*
X318898Y255906D02*
D03*
X208662Y299213D02*
D03*
X218300Y291200D02*
D03*
X204724Y222961D02*
D03*
X294200Y278100D02*
D03*
Y300200D02*
D03*
X220472Y220072D02*
D03*
X350431Y251969D02*
D03*
X259449Y260900D02*
D03*
X383080Y219300D02*
D03*
X277400Y250400D02*
D03*
X267168Y297400D02*
D03*
X242700Y289400D02*
D03*
X256100Y254800D02*
D03*
X224409Y287409D02*
D03*
X329500Y290600D02*
D03*
M02*
