G04*
G04 #@! TF.GenerationSoftware,Altium Limited,CircuitMaker,2.3.0 (2.3.0.3)*
G04*
G04 Layer_Color=15314666*
%FSLAX25Y25*%
%MOIN*%
G70*
G04*
G04 #@! TF.SameCoordinates,0492DEC5-DE9E-4361-A043-D8868978FAA7*
G04*
G04*
G04 #@! TF.FilePolarity,Positive*
G04*
G01*
G75*
%ADD11C,0.01000*%
%ADD14C,0.00394*%
%ADD65C,0.00197*%
%ADD66C,0.00500*%
D11*
X196661Y263406D02*
X201161D01*
X196661Y248406D02*
X201161D01*
Y235906D02*
Y275906D01*
X214661Y235906D02*
Y275906D01*
X196661D02*
X214661D01*
X196661Y235906D02*
Y275906D01*
Y235906D02*
X214661D01*
D14*
X226181Y273228D02*
X252953D01*
X226181D02*
Y285827D01*
X239567Y277559D02*
Y281496D01*
X237598Y279528D02*
X241535D01*
X226181Y285827D02*
X252953D01*
Y273228D02*
Y285827D01*
X297244Y232283D02*
X301181D01*
X299213Y230315D02*
Y234252D01*
X275591Y198031D02*
Y265551D01*
X322835Y198031D02*
Y265551D01*
X275591Y198031D02*
X322835D01*
X275591Y265551D02*
X322835D01*
X224409Y257874D02*
Y261811D01*
X222441Y259843D02*
X226378D01*
X263779Y269685D02*
Y273622D01*
X261811Y271653D02*
X265748D01*
X261811Y283465D02*
X265748D01*
X263779Y281496D02*
Y285433D01*
X322835Y277559D02*
Y281496D01*
X320866Y279528D02*
X324803D01*
X279528Y305118D02*
Y309055D01*
X277559Y307087D02*
X281496D01*
X320866Y299213D02*
X324803D01*
X322835Y297244D02*
Y301181D01*
X338583Y250000D02*
Y253937D01*
X336614Y251969D02*
X340551D01*
X395669Y271654D02*
X399606D01*
X397638Y269685D02*
Y273622D01*
X320835Y279528D02*
X324835D01*
X322835Y277528D02*
Y281528D01*
X338835Y269528D02*
Y289528D01*
X306835D02*
X338835D01*
X306835Y269528D02*
Y289528D01*
Y269528D02*
X338835D01*
X320835Y299213D02*
X324835D01*
X322835Y297213D02*
Y301213D01*
X306835Y289213D02*
Y309213D01*
Y289213D02*
X338835D01*
Y309213D01*
X306835D02*
X338835D01*
D65*
X220669Y267323D02*
X228150D01*
X220669Y252362D02*
X228150D01*
X220669D02*
Y267323D01*
X228150Y252362D02*
Y267323D01*
X256299Y267913D02*
X271260D01*
X256299Y275394D02*
X271260D01*
X256299Y267913D02*
Y275394D01*
X271260Y267913D02*
Y275394D01*
Y279724D02*
Y287205D01*
X256299Y279724D02*
Y287205D01*
X271260D01*
X256299Y279724D02*
X271260D01*
X315354Y275787D02*
X330315D01*
X315354Y283268D02*
X330315D01*
X315354Y275787D02*
Y283268D01*
X330315Y275787D02*
Y283268D01*
X272047Y303346D02*
X287008D01*
X272047Y310827D02*
X287008D01*
X272047Y303346D02*
Y310827D01*
X287008Y303346D02*
Y310827D01*
X330315Y295472D02*
Y302953D01*
X315354Y295472D02*
Y302953D01*
X330315D01*
X315354Y295472D02*
X330315D01*
X331102Y255709D02*
X346063D01*
X331102Y248228D02*
X346063D01*
Y255709D01*
X331102Y248228D02*
Y255709D01*
D66*
X237657Y259843D02*
X242657D01*
X240157Y257343D02*
Y262343D01*
X418760Y303150D02*
X423760D01*
X421260Y300650D02*
Y305650D01*
X362205Y233720D02*
Y238720D01*
X359705Y236220D02*
X364705D01*
X240157Y233720D02*
Y238720D01*
X237657Y236220D02*
X242657D01*
M02*
