G04*
G04 #@! TF.GenerationSoftware,Altium Limited,CircuitMaker,2.3.0 (2.3.0.3)*
G04*
G04 Layer_Color=20142*
%FSLAX25Y25*%
%MOIN*%
G70*
G04*
G04 #@! TF.SameCoordinates,0492DEC5-DE9E-4361-A043-D8868978FAA7*
G04*
G04*
G04 #@! TF.FilePolarity,Negative*
G04*
G01*
G75*
%ADD24R,0.05131X0.07493*%
%ADD25R,0.10642X0.07493*%
%ADD26R,0.45800X0.35800*%
%ADD27R,0.08989X0.15800*%
%ADD28R,0.08674X0.16548*%
%ADD29O,0.08674X0.16548*%
%ADD30R,0.16548X0.08674*%
%ADD31O,0.16548X0.08674*%
%ADD32R,0.06706X0.06706*%
%ADD33C,0.06800*%
%ADD34O,0.10642X0.06800*%
%ADD35R,0.10642X0.06800*%
%ADD36R,0.06706X0.06706*%
%ADD37C,0.06706*%
%ADD38O,0.08674X0.06706*%
%ADD39C,0.06312*%
%ADD40C,0.08300*%
%ADD41R,0.08300X0.08300*%
%ADD42C,0.05800*%
D24*
X228346Y279528D02*
D03*
X250787D02*
D03*
D25*
X240945D02*
D03*
D26*
X299213Y216535D02*
D03*
D27*
X289213Y257087D02*
D03*
X309213D02*
D03*
D28*
X342520Y208661D02*
D03*
X397638D02*
D03*
X204724D02*
D03*
X224409Y303150D02*
D03*
D29*
X326772Y208661D02*
D03*
X381890D02*
D03*
X220472D02*
D03*
X240158Y303150D02*
D03*
X255906D02*
D03*
D30*
X421260Y204724D02*
D03*
D31*
Y220472D02*
D03*
Y236220D02*
D03*
D32*
X204724Y309055D02*
D03*
Y289370D02*
D03*
Y299213D02*
D03*
X279528Y289370D02*
D03*
Y309055D02*
D03*
Y299213D02*
D03*
D33*
X358268Y287402D02*
D03*
X240157Y254843D02*
D03*
Y264843D02*
D03*
X426260Y303150D02*
D03*
X416260D02*
D03*
X362205Y241220D02*
D03*
Y231220D02*
D03*
X240157D02*
D03*
Y241220D02*
D03*
D34*
X208661Y265906D02*
D03*
Y255906D02*
D03*
D35*
Y245906D02*
D03*
D36*
X382638Y286654D02*
D03*
D37*
Y276654D02*
D03*
Y266654D02*
D03*
Y256654D02*
D03*
X412638Y286654D02*
D03*
Y276654D02*
D03*
Y266654D02*
D03*
Y256654D02*
D03*
D38*
X366142Y303150D02*
D03*
Y263780D02*
D03*
Y273622D02*
D03*
Y293307D02*
D03*
Y283465D02*
D03*
D39*
X362205Y217520D02*
D03*
Y207677D02*
D03*
X240157D02*
D03*
Y217520D02*
D03*
D40*
X307835Y274528D02*
D03*
Y284528D02*
D03*
X337835D02*
D03*
Y304213D02*
D03*
Y294213D02*
D03*
X307835D02*
D03*
D41*
X337835Y274528D02*
D03*
X307835Y304213D02*
D03*
D42*
X389764Y263779D02*
D03*
X334050Y217250D02*
D03*
X418376Y272005D02*
D03*
X429134Y259842D02*
D03*
X397638Y279528D02*
D03*
X405512Y283465D02*
D03*
X374016Y256654D02*
D03*
X381890Y295276D02*
D03*
X318898Y255906D02*
D03*
X208662Y299213D02*
D03*
X218300Y291200D02*
D03*
X204724Y222961D02*
D03*
X294200Y278100D02*
D03*
Y300200D02*
D03*
X220472Y220072D02*
D03*
X350431Y251969D02*
D03*
X259449Y260900D02*
D03*
X383080Y219300D02*
D03*
X277400Y250400D02*
D03*
X267168Y297400D02*
D03*
X242700Y289400D02*
D03*
X256100Y254800D02*
D03*
X224409Y287409D02*
D03*
X329500Y290600D02*
D03*
M02*
