G04*
G04 #@! TF.GenerationSoftware,Altium Limited,CircuitMaker,2.3.0 (2.3.0.3)*
G04*
G04 Layer_Color=7318015*
%FSLAX25Y25*%
%MOIN*%
G70*
G04*
G04 #@! TF.SameCoordinates,0492DEC5-DE9E-4361-A043-D8868978FAA7*
G04*
G04*
G04 #@! TF.FilePolarity,Positive*
G04*
G01*
G75*
%ADD15R,0.04331X0.06693*%
%ADD16R,0.09842X0.06693*%
%ADD17R,0.45000X0.35000*%
%ADD18R,0.08189X0.15000*%
%ADD19R,0.07874X0.15748*%
%ADD20O,0.07874X0.15748*%
%ADD21R,0.15748X0.07874*%
%ADD22O,0.15748X0.07874*%
%ADD23R,0.05905X0.05905*%
D15*
X228346Y279528D02*
D03*
X250787D02*
D03*
D16*
X240945D02*
D03*
D17*
X299213Y216535D02*
D03*
D18*
X289213Y257087D02*
D03*
X309213D02*
D03*
D19*
X342520Y208661D02*
D03*
X397638D02*
D03*
X204724D02*
D03*
X224409Y303150D02*
D03*
D20*
X326772Y208661D02*
D03*
X381890D02*
D03*
X220472D02*
D03*
X240158Y303150D02*
D03*
X255906D02*
D03*
D21*
X421260Y204724D02*
D03*
D22*
Y220472D02*
D03*
Y236220D02*
D03*
D23*
X204724Y309055D02*
D03*
Y289370D02*
D03*
Y299213D02*
D03*
X279528Y289370D02*
D03*
Y309055D02*
D03*
Y299213D02*
D03*
M02*
