G04*
G04 #@! TF.GenerationSoftware,Altium Limited,CircuitMaker,2.3.0 (2.3.0.3)*
G04*
G04 Layer_Color=15138737*
%FSLAX25Y25*%
%MOIN*%
G70*
G04*
G04 #@! TF.SameCoordinates,0492DEC5-DE9E-4361-A043-D8868978FAA7*
G04*
G04*
G04 #@! TF.FilePolarity,Positive*
G04*
G01*
G75*
%ADD14C,0.00394*%
%ADD64C,0.00000*%
D14*
X389173Y287402D02*
G03*
X389173Y287402I-1969J0D01*
G01*
X230315Y273622D02*
X248819D01*
Y285433D01*
X230315D02*
X248819D01*
X230315Y273622D02*
Y285433D01*
X278248Y207283D02*
Y245275D01*
X320177Y207283D02*
Y245275D01*
X278248Y207283D02*
X320177D01*
X278248Y245275D02*
X320177D01*
X221752Y263976D02*
X227067D01*
X221752Y255709D02*
X227067D01*
X221752D02*
Y263976D01*
X227067Y255709D02*
Y263976D01*
X259646Y268996D02*
X267913D01*
X259646Y274311D02*
X267913D01*
X259646Y268996D02*
Y274311D01*
X267913Y268996D02*
Y274311D01*
Y280807D02*
Y286122D01*
X259646Y280807D02*
Y286122D01*
X267913D01*
X259646Y280807D02*
X267913D01*
X318701Y276870D02*
X326969D01*
X318701Y282185D02*
X326969D01*
X318701Y276870D02*
Y282185D01*
X326969Y276870D02*
Y282185D01*
X275394Y304429D02*
X283661D01*
X275394Y309744D02*
X283661D01*
X275394Y304429D02*
Y309744D01*
X283661Y304429D02*
Y309744D01*
X326968Y296555D02*
Y301870D01*
X318701Y296555D02*
Y301870D01*
X326968D01*
X318701Y296555D02*
X326968D01*
X334449Y254626D02*
X342717D01*
X334449Y249311D02*
X342717D01*
Y254626D01*
X334449Y249311D02*
Y254626D01*
X383661Y252362D02*
Y290945D01*
X411614Y252362D02*
Y290945D01*
X383661D02*
X411614D01*
X383661Y252362D02*
X411614D01*
D64*
X228740Y285433D02*
X250394D01*
M02*
